<?xml version="1.0" encoding="UTF-8" standalone="no"?>
<svg
   xmlns:dc="http://purl.org/dc/elements/1.1/"
   xmlns:cc="http://creativecommons.org/ns#"
   xmlns:rdf="http://www.w3.org/1999/02/22-rdf-syntax-ns#"
   xmlns:svg="http://www.w3.org/2000/svg"
   xmlns="http://www.w3.org/2000/svg"
   xmlns:sodipodi="http://sodipodi.sourceforge.net/DTD/sodipodi-0.dtd"
   xmlns:inkscape="http://www.inkscape.org/namespaces/inkscape"
   viewBox="0 0 496.84543 228.69399"
   height="228.69398pt"
   width="496.84543pt"
   version="1.1"
   id="svg3307"
   sodipodi:docname="2024-05-21-sensor_reading.svg"
   inkscape:version="0.92.5 (2060ec1f9f, 2020-04-08)">
  <metadata
     id="metadata3311">
    <rdf:RDF>
      <cc:Work
         rdf:about="">
        <dc:format>image/svg+xml</dc:format>
        <dc:type
           rdf:resource="http://purl.org/dc/dcmitype/StillImage" />
        <dc:title>gl2ps_renderer figure</dc:title>
      </cc:Work>
    </rdf:RDF>
  </metadata>
  <sodipodi:namedview
     pagecolor="#ffffff"
     bordercolor="#666666"
     borderopacity="1"
     objecttolerance="10"
     gridtolerance="10"
     guidetolerance="10"
     inkscape:pageopacity="0"
     inkscape:pageshadow="2"
     inkscape:window-width="1876"
     inkscape:window-height="1016"
     id="namedview3309"
     showgrid="false"
     inkscape:zoom="0.81944444"
     inkscape:cx="487.90224"
     inkscape:cy="68.301631"
     inkscape:window-x="44"
     inkscape:window-y="27"
     inkscape:window-maximized="1"
     inkscape:current-layer="svg3307"
     fit-margin-top="1"
     fit-margin-left="1"
     fit-margin-right="1"
     fit-margin-bottom="1" />
  <title
     id="title3096">gl2ps_renderer figure</title>
  <desc
     id="desc3098">
Creator: GL2PS 1.4.0, (C) 1999-2017 C. Geuzaine
For: Octave
CreationDate: Sat Jun  1 22:00:58 2024
</desc>
  <defs
     id="defs3100" />
  <g
     id="g3305"
     transform="translate(-35.994519,-182.041)">
    <clipPath
       id="cp00576432">
      <polygon
         points="576,0 0,0 0,432 576,432 "
         id="polygon3106" />
    </clipPath>
    <g
       clip-path="url(#cp00576432)"
       id="g3275">
      <polyline
         points="74.88,384.48 74.88,380.015"
         id="polyline3123"
         style="fill:none;stroke:#262626;stroke-width:0.5;stroke-linecap:butt;stroke-linejoin:miter" />
      <polyline
         points="164.16,384.48 164.16,380.015"
         id="polyline3127"
         style="fill:none;stroke:#262626;stroke-width:0.5;stroke-linecap:butt;stroke-linejoin:miter" />
      <polyline
         points="253.44,384.48 253.44,380.015"
         id="polyline3131"
         style="fill:none;stroke:#262626;stroke-width:0.5;stroke-linecap:butt;stroke-linejoin:miter" />
      <polyline
         points="342.72,384.48 342.72,380.015"
         id="polyline3135"
         style="fill:none;stroke:#262626;stroke-width:0.5;stroke-linecap:butt;stroke-linejoin:miter" />
      <polyline
         points="432,384.48 432,380.015"
         id="polyline3139"
         style="fill:none;stroke:#262626;stroke-width:0.5;stroke-linecap:butt;stroke-linejoin:miter" />
      <polyline
         points="521.28,384.48 521.28,380.015"
         id="polyline3143"
         style="fill:none;stroke:#262626;stroke-width:0.5;stroke-linecap:butt;stroke-linejoin:miter" />
      <text
         font-style="normal"
         transform="translate(71.88,399.982)"
         font-size="10"
         xml:space="preserve"
         font-weight="normal"
         id="text3149"
         style="font-style:normal;font-weight:normal;font-size:10px;font-family:FreeSans">     <tspan
   y="0"
   x="0"
   id="tspan3147"
   style="fill:#262626">0</tspan>   </text>
      <text
         font-style="normal"
         transform="translate(161.16,399.982)"
         font-size="10"
         xml:space="preserve"
         font-weight="normal"
         id="text3153"
         style="font-style:normal;font-weight:normal;font-size:10px;font-family:FreeSans">     <tspan
   y="0"
   x="0"
   id="tspan3151"
   style="fill:#262626">2</tspan>   </text>
      <text
         font-style="normal"
         transform="translate(250.44,399.982)"
         font-size="10"
         xml:space="preserve"
         font-weight="normal"
         id="text3157"
         style="font-style:normal;font-weight:normal;font-size:10px;font-family:FreeSans">     <tspan
   y="0"
   x="0"
   id="tspan3155"
   style="fill:#262626">4</tspan>   </text>
      <text
         font-style="normal"
         transform="translate(339.72,399.982)"
         font-size="10"
         xml:space="preserve"
         font-weight="normal"
         id="text3161"
         style="font-style:normal;font-weight:normal;font-size:10px;font-family:FreeSans">     <tspan
   y="0"
   x="0"
   id="tspan3159"
   style="fill:#262626">6</tspan>   </text>
      <text
         font-style="normal"
         transform="translate(429,399.982)"
         font-size="10"
         xml:space="preserve"
         font-weight="normal"
         id="text3165"
         style="font-style:normal;font-weight:normal;font-size:10px;font-family:FreeSans">     <tspan
   y="0"
   x="0"
   id="tspan3163"
   style="fill:#262626">8</tspan>   </text>
      <text
         font-style="normal"
         transform="translate(515.28,399.982)"
         font-size="10"
         xml:space="preserve"
         font-weight="normal"
         id="text3169"
         style="font-style:normal;font-weight:normal;font-size:10px;font-family:FreeSans">     <tspan
   y="0"
   x="0 6"
   id="tspan3167"
   style="fill:#262626">10</tspan>   </text>
      <polyline
         points="74.88,384.48 521.28,384.48"
         id="polyline3171"
         style="fill:none;stroke:#262626;stroke-width:0.5;stroke-linecap:butt;stroke-linejoin:miter;stroke-dasharray:16, 0;stroke-opacity:0.15" />
      <polyline
         points="74.88,334.183 521.28,334.183"
         id="polyline3173"
         style="fill:none;stroke:#262626;stroke-width:0.5;stroke-linecap:butt;stroke-linejoin:miter;stroke-dasharray:16, 0;stroke-opacity:0.15" />
      <polyline
         points="74.88,283.886 521.28,283.886"
         id="polyline3175"
         style="fill:none;stroke:#262626;stroke-width:0.5;stroke-linecap:butt;stroke-linejoin:miter;stroke-dasharray:16, 0;stroke-opacity:0.15" />
      <polyline
         points="74.88,233.589 521.28,233.589"
         id="polyline3177"
         style="fill:none;stroke:#262626;stroke-width:0.5;stroke-linecap:butt;stroke-linejoin:miter;stroke-dasharray:16, 0;stroke-opacity:0.15" />
      <polyline
         points="74.88,384.48 79.348,384.48"
         id="polyline3187"
         style="fill:none;stroke:#262626;stroke-width:0.5;stroke-linecap:butt;stroke-linejoin:miter" />
      <polyline
         points="521.28,384.48 516.812,384.48"
         id="polyline3189"
         style="fill:none;stroke:#262626;stroke-width:0.5;stroke-linecap:butt;stroke-linejoin:miter" />
      <polyline
         points="74.88,334.183 79.348,334.183"
         id="polyline3191"
         style="fill:none;stroke:#262626;stroke-width:0.5;stroke-linecap:butt;stroke-linejoin:miter" />
      <polyline
         points="521.28,334.183 516.812,334.183"
         id="polyline3193"
         style="fill:none;stroke:#262626;stroke-width:0.5;stroke-linecap:butt;stroke-linejoin:miter" />
      <polyline
         points="74.88,283.886 79.348,283.886"
         id="polyline3195"
         style="fill:none;stroke:#262626;stroke-width:0.5;stroke-linecap:butt;stroke-linejoin:miter" />
      <polyline
         points="521.28,283.886 516.812,283.886"
         id="polyline3197"
         style="fill:none;stroke:#262626;stroke-width:0.5;stroke-linecap:butt;stroke-linejoin:miter" />
      <polyline
         points="74.88,233.589 79.348,233.589"
         id="polyline3199"
         style="fill:none;stroke:#262626;stroke-width:0.5;stroke-linecap:butt;stroke-linejoin:miter" />
      <polyline
         points="521.28,233.589 516.812,233.589"
         id="polyline3201"
         style="fill:none;stroke:#262626;stroke-width:0.5;stroke-linecap:butt;stroke-linejoin:miter" />
      <polyline
         points="74.88,183.291 79.348,183.291"
         id="polyline3203"
         style="fill:none;stroke:#262626;stroke-width:0.5;stroke-linecap:butt;stroke-linejoin:miter" />
      <polyline
         points="521.28,183.291 516.812,183.291"
         id="polyline3205"
         style="fill:none;stroke:#262626;stroke-width:0.5;stroke-linecap:butt;stroke-linejoin:miter" />
      <text
         font-style="normal"
         transform="translate(54.8755,338.183)"
         font-size="10"
         xml:space="preserve"
         font-weight="normal"
         id="text3225"
         style="font-style:normal;font-weight:normal;font-size:10px;font-family:FreeSans">     <tspan
   y="0"
   x="0 3 9"
   id="tspan3223"
   style="fill:#262626">-10</tspan>   </text>
      <text
         font-style="normal"
         transform="translate(60.8755,237.589)"
         font-size="10"
         xml:space="preserve"
         font-weight="normal"
         id="text3233"
         style="font-style:normal;font-weight:normal;font-size:10px;font-family:FreeSans">  0   </text>
      <polyline
         points="74.88,384.48 521.28,384.48"
         id="polyline3251"
         style="fill:none;stroke:#262626;stroke-width:0.5;stroke-linecap:square;stroke-linejoin:miter;stroke-dasharray:16, 0" />
      <polyline
         points="74.88,32.4 521.28,32.4"
         id="polyline3253"
         style="fill:none;stroke:#262626;stroke-width:0.5;stroke-linecap:square;stroke-linejoin:miter;stroke-dasharray:16, 0"
         transform="translate(0,150.891)" />
      <text
         font-style="normal"
         font-size="11"
         xml:space="preserve"
         font-weight="normal"
         id="text3261"
         style="font-style:normal;font-weight:normal;font-size:11px;font-family:FreeSans"
         x="288.07999"
         y="409.48199">     <tspan
   y="409.48199"
   x="288.07999 291.07999 293.07999 302.07999"
   id="tspan3259"
   style="fill:#262626">time</tspan>   </text>
      <text
         font-style="normal"
         transform="rotate(-90)"
         font-size="11"
         xml:space="preserve"
         font-weight="normal"
         id="text3269"
         style="font-style:normal;font-weight:normal;font-size:11px;font-family:FreeSans"
         x="-328.44"
         y="51.375519">     <tspan
   y="49.375519"
   x="-328.44 -322.44 -316.44 -310.44 -304.44 -302.44 -296.44 -292.44 -286.44 -283.44 -281.44 -275.44 -269.44 -266.44 -263.44 -254.44 -251.44"
   id="tspan3263"
   style="fill:#262626">acceleration [m/s</tspan>     <tspan
   y="43.375519"
   font-size="9"
   x="-246.44"
   id="tspan3265"
   style="font-size:9px;fill:#262626">2</tspan>     <tspan
   y="49.375519"
   x="-241.44"
   id="tspan3267"
   style="fill:#262626">]</tspan>   </text>
      <polyline
         points="74.88,325.67 75.3264,322.246 75.7728,321.657 76.2192,318.139 76.6656,333.542 77.112,328.32 77.5584,324.441 78.0048,336.094 78.4512,331.049 78.8976,328.201 79.344,338.27 79.7904,333.413 80.2368,320.989 80.6832,333.287 81.1296,325.321 81.576,327.101 82.0224,336.961 82.4688,327.123 82.9152,337.736 83.3616,319.752 83.808,331.951 84.2544,328.154 84.7008,331.463 85.1472,322.6 85.5936,334.2 86.04,331.173 86.4864,331.156 86.9328,317.016 87.3792,323.993 87.8256,330.493 88.272,338.294 88.7184,325.034 89.1648,330.134 89.6112,342.454 90.0576,331.92 90.504,331.154 90.9504,325.209 91.3968,316.8 91.8432,331.507 92.2896,333.91 92.736,331.096 93.1824,335.793 93.6288,320.17 94.0752,324.948 94.5216,331.228 94.968,331.075 95.4144,327.109 95.8608,324.734 96.3072,336.452 96.7536,318.622 97.2,328.3 97.6464,336.576 98.0928,342.743 98.5392,329.99 98.9856,333.735 99.432,316.073 99.8784,325.707 100.325,329.148 100.771,323.025 101.218,317.522 101.664,320.07 102.11,334.657 102.557,336.238 103.003,337.368 103.45,328.612 103.896,330.703 104.342,327.047 104.789,331.721 105.235,328.624 105.682,327.944 106.128,335.857 106.574,331.959 107.021,322.94 107.467,310.899 107.914,315.816 108.36,321.424 108.806,320.334 109.253,331.001 109.699,336.083 110.146,330.595 110.592,334.961 111.038,326.689 111.485,340.881 111.931,328.206 112.378,332.557 112.824,341.473 113.27,327.462 113.717,324.953 114.163,341.203 114.61,329.631 115.056,329.101 115.502,332.327 115.949,324.516 116.395,314.829 116.842,343.973 117.288,335.66 117.734,334.793 118.181,318.424 118.627,334.316 119.074,342.425 119.52,312.702 119.966,333.357 120.413,317.266 120.859,331.317 121.306,331.754 121.752,325.867 122.198,335.388 122.645,338.948 123.091,323.492 123.538,336.494 123.984,338.831 124.43,336.631 124.877,317.224 125.323,333.759 125.77,331.299 126.216,337.215 126.662,327.507 127.109,334.003 127.555,321.289 128.002,339.006 128.448,333.162 128.894,320.876 129.341,333.856 129.787,340.966 130.234,321.812 130.68,334.782 131.126,331.95 131.573,338.752 132.019,349.582 132.466,332.109 132.912,314.875 133.358,322.227 133.805,326.62 134.251,331.675 134.698,344.459 135.144,333.204 135.59,323.723 136.037,345.282 136.483,317.096 136.93,322.84 137.376,328.835 137.822,323.755 138.269,324.962 138.715,334.892 139.162,323.982 139.608,324.561 140.054,325.345 140.501,328.398 140.947,337.165 141.394,331.574 141.84,325.69 142.286,331.587 142.733,328.358 143.179,319.325 143.626,341.525 144.072,331.696 144.518,320.489 144.965,328.253 145.411,326.732 145.858,337.328 146.304,332.891 146.75,325.165 147.197,338.507 147.643,331.216 148.09,334.412 148.536,335.149 148.982,326.211 149.429,326.681 149.875,318.465 150.322,333.883 150.768,330.897 151.214,320.856 151.661,333.69 152.107,340.992 152.554,346.168 153,344.834 153.446,345.795 153.893,328.534 154.339,343.351 154.786,322.359 155.232,330.563 155.678,320.805 156.125,325.802 156.571,324.901 157.018,331.8 157.464,341.462 157.91,332.974 158.357,326.937 158.803,320.048 159.25,327.383 159.696,311.822 160.142,329.588 160.589,321.809 161.035,340.88 161.482,329.564 161.928,319.302 162.374,328.933 162.821,316.83 163.267,322.793 163.714,332.262 164.16,326.552 164.606,333.741 165.053,322.596 165.499,330.774 165.946,332.216 166.392,343.141 166.838,329.128 167.285,331.409 167.731,306.888 168.178,315.412 168.624,321.557 169.07,335.71 169.517,323.238 169.963,327.698 170.41,328.897 170.856,313.518 171.302,328.201 171.749,326.398 172.195,328.856 172.642,337.226 173.088,311.515 173.534,332.661 173.981,334.281 174.427,334.001 174.874,319.338 175.32,337.665 175.766,330.832 176.213,329.495 176.659,321.257 177.106,332.477 177.552,330.554 177.998,334.733 178.445,343.437 178.891,325.244 179.338,327.657 179.784,339.417 180.23,330.708 180.677,324.084 181.123,333.812 181.57,325.187 182.016,332.301 182.462,327.206 182.909,333.171 183.355,326.549 183.802,328.092 184.248,332.196 184.694,326.25 185.141,328.315 185.587,332.465 186.034,326.654 186.48,332.58 186.926,322.004 187.373,326.76 187.819,324.976 188.266,331.316 188.712,322.676 189.158,320.174 189.605,331.789 190.051,329.419 190.498,311.673 190.944,321.133 191.39,329.607 191.837,342.56 192.283,321.401 192.73,334.08 193.176,322.05 193.622,325.25 194.069,322.018 194.515,331.901 194.962,328.984 195.408,337.47 195.854,345.48 196.301,329.178 196.747,319.415 197.194,328.454 197.64,320.468 198.086,330.823 198.533,336.237 198.979,331.94 199.426,332.779 199.872,328.398 200.318,317.715 200.765,329.775 201.211,332.813 201.658,336.814 202.104,333.551 202.55,327.751 202.997,319.533 203.443,323.995 203.89,322.495 204.336,331.194 204.782,327.838 205.229,323.21 205.675,322.628 206.122,323.273 206.568,328.156 207.014,320.77 207.461,332.822 207.907,334.141 208.354,335.737 208.8,330.192 209.246,321.474 209.693,316.359 210.139,315.206 210.586,338.284 211.032,322.978 211.478,341.215 211.925,315.795 212.371,336.595 212.818,310.76 213.264,329.164 213.71,331.639 214.157,332.342 214.603,335.302 215.05,332.929 215.496,321.266 215.942,324.142 216.389,329.643 216.835,333.508 217.282,332.316 217.728,332.171 218.174,334.21 218.621,324.099 219.067,340.589 219.514,328.261 219.96,323.245 220.406,330.019 220.853,330.428 221.299,331.231 221.746,337.865 222.192,327.292 222.638,336.412 223.085,328.637 223.531,324.819 223.978,319.446 224.424,339.469 224.87,321.395 225.317,333.44 225.763,334.908 226.21,337.314 226.656,360.601 227.102,335.678 227.549,329.658 227.995,331.08 228.442,335.958 228.888,333.809 229.334,326.739 229.781,328.891 230.227,313.082 230.674,350.18 231.12,324.615 231.566,312.177 232.013,334.691 232.459,327.47 232.906,321.45 233.352,331.678 233.798,323.555 234.245,327.753 234.691,336.934 235.138,321.924 235.584,318.612 236.03,326.812 236.477,328.574 236.923,316.75 237.37,327.169 237.816,337.656 238.262,331.729 238.709,323.206 239.155,324.062 239.602,316.26 240.048,318.749 240.494,337.568 240.941,327.155 241.387,337.197 241.834,320.341 242.28,322.486 242.726,331.511 243.173,329.18 243.619,322.077 244.066,335.813 244.512,320.439 244.958,339.084 245.405,331.68 245.851,332.646 246.298,329.637 246.744,332.93 247.19,327.648 247.637,328.868 248.083,325.061 248.53,340.05 248.976,331.713 249.422,342.899 249.869,331.126 250.315,322.415 250.762,334.903 251.208,325.653 251.654,332.405 252.101,327.025 252.547,339.191 252.994,329.999 253.44,322.758 253.886,329.134 254.333,325.005 254.779,324.577 255.226,329.085 255.672,328.564 256.118,316.286 256.565,322.308 257.011,318.332 257.458,327.445 257.904,326.375 258.35,340.384 258.797,327.313 259.243,331.035 259.69,323.657 260.136,329.671 260.582,326.296 261.029,339.704 261.475,321.604 261.922,341.519 262.368,328.543 262.814,333.688 263.261,337.529 263.707,334.101 264.154,330.384 264.6,332.399 265.046,338.63 265.493,326.62 265.939,343.288 266.386,337.582 266.832,321.58 267.278,335.494 267.725,335.146 268.171,325.52 268.618,318.178 269.064,333.452 269.51,323.612 269.957,334.857 270.403,313.79 270.85,328.542 271.296,326.843 271.742,335.058 272.189,330.49 272.635,331.006 273.082,338.502 273.528,330.998 273.974,320.133 274.421,348.323 274.867,336.117 275.314,338.863 275.76,332.227 276.206,322.103 276.653,315.329 277.099,334.568 277.546,326.849 277.992,334.717 278.438,321.457 278.885,320.188 279.331,332.399 279.778,327.073 280.224,314.907 280.67,337.147 281.117,349.741 281.563,321.15 282.01,341.198 282.456,332.251 282.902,323.064 283.349,326.36 283.795,329.65 284.242,334.38 284.688,321.929 285.134,319.505 285.581,329.208 286.027,340.745 286.474,329.936 286.92,323.115 287.366,335.777 287.813,332.131 288.259,319.685 288.706,327.429 289.152,328.414 289.598,317.073 290.045,328.316 290.491,332.933 290.938,323.128 291.384,323.665 291.83,328.584 292.277,321.733 292.723,329.393 293.17,333.771 293.616,312.069 294.062,328.768 294.509,319.647 294.955,331.851 295.402,329.951 295.848,329.459 296.294,331.253 296.741,332.692 297.187,318.936 297.634,323.239 298.08,331.688 298.526,311.732 298.973,329.825 299.419,345.932 299.866,328.837 300.312,340.577 300.758,329.14 301.205,323.93 301.651,342.717 302.098,328.902 302.544,317.285 302.99,342.971 303.437,316.943 303.883,328.046 304.33,333.027 304.776,339.398 305.222,327.132 305.669,333.031 306.115,324.743 306.562,312.577 307.008,331.952 307.454,332.685 307.901,331.256 308.347,326.215 308.794,336.27 309.24,342.465 309.686,324.473 310.133,348.361 310.579,331.927 311.026,335.116 311.472,335.956 311.918,323.989 312.365,344.841 312.811,323.912 313.258,329.303 313.704,334.849 314.15,329.159 314.597,322.635 315.043,314.312 315.49,327.992 315.936,332.363 316.382,328.792 316.829,326.71 317.275,333.117 317.722,336.84 318.168,333.408 318.614,326.714 319.061,325.383 319.507,328.682 319.954,325.02 320.4,339.716 320.846,326.806 321.293,327.831 321.739,339.66 322.186,323.52 322.632,320.617 323.078,332.939 323.525,315.946 323.971,341.982 324.418,330.211 324.864,334.463 325.31,338.745 325.757,333.434 326.203,314.467 326.65,336.082 327.096,325.935 327.542,319.699 327.989,324.726 328.435,328.733 328.882,335.462 329.328,338.956 329.774,340.799 330.221,324.851 330.667,322.426 331.114,339.775 331.56,336.464 332.006,340.598 332.453,333.754 332.899,327.249 333.346,320.726 333.792,329.387 334.238,336.652 334.685,319.936 335.131,315.549 335.578,324.5 336.024,326.439 336.47,332.864 336.917,331.1 337.363,335.306 337.81,348.976 338.256,338.344 338.702,337.147 339.149,317.964 339.595,330.121 340.042,326.197 340.488,328.661 340.934,329.594 341.381,318.362 341.827,328.386 342.274,333.765 342.72,334.462 343.166,331.084 343.613,334.303 344.059,334.098 344.506,321.773 344.952,341.075 345.398,342.854 345.845,336.135 346.291,318.669 346.738,341.904 347.184,324.637 347.63,334.657 348.077,329.656 348.523,328.968 348.97,338.014 349.416,331.752 349.862,326.41 350.309,335.886 350.755,339.359 351.202,327.89 351.648,326.484 352.094,328.421 352.541,326.873 352.987,329.269 353.434,336.625 353.88,333.872 354.326,336.155 354.773,323.342 355.219,337.307 355.666,336.605 356.112,335.064 356.558,327.937 357.005,329.882 357.451,319.97 357.898,324.297 358.344,340.638 358.79,332.063 359.237,329.773 359.683,337.804 360.13,325.093 360.576,317.471 361.022,328.023 361.469,327.884 361.915,346.887 362.362,321.443 362.808,327.644 363.254,336.143 363.701,326.098 364.147,318.88 364.594,326.187 365.04,331.256 365.486,344.636 365.933,326.587 366.379,329.667 366.826,339.586 367.272,335.818 367.718,336.004 368.165,320.369 368.611,334.992 369.058,331.509 369.504,324.675 369.95,327.651 370.397,327.51 370.843,327.029 371.29,331.346 371.736,325.352 372.182,331.824 372.629,332.818 373.075,321.808 373.522,321.612 373.968,317.314 374.414,331.89 374.861,328.31 375.307,330.215 375.754,332.026 376.2,337.917 376.646,341.234 377.093,327.439 377.539,335.332 377.986,321.968 378.432,323.941 378.878,340.899 379.325,323.3 379.771,335.934 380.218,322.369 380.664,344.052 381.11,327.301 381.557,325.418 382.003,323.982 382.45,319.31 382.896,337.067 383.342,336.533 383.789,326.489 384.235,340.592 384.682,330.781 385.128,329.784 385.574,317.037 386.021,323.386 386.467,323.804 386.914,332.115 387.36,325.922 387.806,326.385 388.253,334.077 388.699,330.166 389.146,328.699 389.592,338.238 390.038,332.482 390.485,330.482 390.931,327.69 391.378,327.274 391.824,327.997 392.27,324.048 392.717,340.491 393.163,330.188 393.61,343.253 394.056,341.535 394.502,321.759 394.949,322.638 395.395,325.387 395.842,329.14 396.288,319.119 396.734,328.286 397.181,335.893 397.627,334.26 398.074,311.553 398.52,322.099 398.966,327.238 399.413,316.104 399.859,327.197 400.306,331.18 400.752,324.783 401.198,327.848 401.645,330.058 402.091,334.055 402.538,333.494 402.984,330.604 403.43,332.259 403.877,320.306 404.323,332.098 404.77,336.281 405.216,325.427 405.662,325.636 406.109,332.061 406.555,320.272 407.002,326.988 407.448,332.964 407.894,336.58 408.341,322.145 408.787,340.8 409.234,323.053 409.68,329.378 410.126,337.488 410.573,315.97 411.019,340.791 411.466,334.841 411.912,327.357 412.358,330.377 412.805,320.538 413.251,340.406 413.698,330.821 414.144,332.678 414.59,335.44 415.037,331.798 415.483,327.654 415.93,326.197 416.376,319.891 416.822,326.32 417.269,319.451 417.715,321.081 418.162,324.774 418.608,331.485 419.054,331.566 419.501,343.106 419.947,331.812 420.394,328.085 420.84,344.92 421.286,333.329 421.733,329.61 422.179,335.281 422.626,324.031 423.072,333.671 423.518,321.008 423.965,319.397 424.411,338.701 424.858,349.853 425.304,346.681 425.75,336.584 426.197,332.173 426.643,316.868 427.09,336.519 427.536,332.525 427.982,318.818 428.429,336.496 428.875,325.292 429.322,318.798 429.768,329.38 430.214,322.009 430.661,314.073 431.107,319.093 431.554,332.049 432,340.359 432.446,322.473 432.893,332.322 433.339,322.177 433.786,323.494 434.232,327.927 434.678,332.262 435.125,323.768 435.571,325.227 436.018,334.243 436.464,337.708 436.91,330.879 437.357,324.627 437.803,328.979 438.25,333.623 438.696,328.317 439.142,329.633 439.589,338.386 440.035,343.774 440.482,335.588 440.928,334.378 441.374,327.092 441.821,324.626 442.267,327.496 442.714,342.226 443.16,329.67 443.606,335.46 444.053,334.919 444.499,329.629 444.946,337.946 445.392,328.762 445.838,327.043 446.285,318.948 446.731,315.372 447.178,334.035 447.624,318.03 448.07,334.812 448.517,317.957 448.963,331.363 449.41,321.171 449.856,340.056 450.302,325.111 450.749,331.529 451.195,308.784 451.642,338.166 452.088,319.083 452.534,327.892 452.981,350.02 453.427,320.499 453.874,320.562 454.32,347.268 454.766,333.886 455.213,348.3 455.659,332.426 456.106,324.814 456.552,318.207 456.998,309.218 457.445,326.042 457.891,325.205 458.338,325.277 458.784,334.402 459.23,325.677 459.677,315.406 460.123,330.358 460.57,337.989 461.016,322.916 461.462,316.881 461.909,324.662 462.355,342.867 462.802,318.106 463.248,333.735 463.694,327.728 464.141,337.918 464.587,324.513 465.034,323.349 465.48,343.54 465.926,331.292 466.373,325.719 466.819,330.602 467.266,332.529 467.712,349.725 468.158,322.514 468.605,320.786 469.051,336.077 469.498,334.693 469.944,325.399 470.39,344.212 470.837,328.338 471.283,335.103 471.73,327.413 472.176,324.396 472.622,335.251 473.069,336.841 473.515,343.824 473.962,325.345 474.408,326.04 474.854,337.629 475.301,333.564 475.747,335.17 476.194,334.003 476.64,325.506 477.086,342.666 477.533,343.106 477.979,327.515 478.426,328.469 478.872,332.823 479.318,323.959 479.765,326.355 480.211,336.458 480.658,326.249 481.104,334.556 481.55,321.484 481.997,330.139 482.443,318.035 482.89,328.845 483.336,328.302 483.782,336.604 484.229,327.289 484.675,335.27 485.122,325.871 485.568,334.211 486.014,326.469 486.461,334.617 486.907,329.929 487.354,325.21 487.8,330.965 488.246,334.262 488.693,339.559 489.139,320.523 489.586,335.838 490.032,323.518 490.478,330.933 490.925,326.479 491.371,322.363 491.818,313.484 492.264,327.747 492.71,329.698 493.157,330.918 493.603,336.512 494.05,329.856 494.496,338.164 494.942,341.288 495.389,337.885 495.835,334.392 496.282,326.083 496.728,330.635 497.174,327.636 497.621,325.459 498.067,332.639 498.514,316.531 498.96,329.66 499.406,325.695 499.853,326.014 500.299,325.057 500.746,328.591 501.192,330.165 501.638,326.037 502.085,327.464 502.531,333.975 502.978,325.254 503.424,336.965 503.87,320.925 504.317,340.068 504.763,333.887 505.21,337.507 505.656,333.039 506.102,329.792 506.549,330.953 506.995,305.644 507.442,336.888 507.888,334.74 508.334,332.372 508.781,324.489 509.227,322.703 509.674,330.807 510.12,319.358 510.566,318.121 511.013,327.298 511.459,318.287 511.906,328 512.352,323.923 512.798,326.107 513.245,325.001 513.691,336.109 514.138,332.73 514.584,317.811 515.03,327.979 515.477,328.314 515.923,328.391 516.37,335.236 516.816,322.028 517.262,332.011 517.709,325.402 518.155,337.203 518.602,342.452 519.048,324.002 519.494,328.949 519.941,335.897 520.387,325.198 520.834,327.131 521.28,297.147"
         id="polyline3271"
         style="fill:none;stroke:#0071bc;stroke-width:2;stroke-linecap:butt;stroke-linejoin:round" />
      <polyline
         points="74.88,91.1905 75.3264,86.1696 75.7728,88.1742 76.2192,80.3052 76.6656,85.1215 77.112,89.0723 77.5584,84.0174 78.0048,63.9154 78.4512,75.1825 78.8976,88.2575 79.344,87.5311 79.7904,86.5496 80.2368,77.6599 80.6832,81.9836 81.1296,73.2831 81.576,77.7833 82.0224,70.6062 82.4688,71.4728 82.9152,77.0675 83.3616,72.5007 83.808,81.0913 84.2544,88.6984 84.7008,81.5349 85.1472,82.699 85.5936,94.3604 86.04,85.6407 86.4864,84.8908 86.9328,71.6101 87.3792,79.6626 87.8256,80.3546 88.272,73.7174 88.7184,95.9753 89.1648,79.1687 89.6112,63.5813 90.0576,100.334 90.504,99.4344 90.9504,75.1841 91.3968,81.7187 91.8432,78.8994 92.2896,73.4369 92.736,80.0116 93.1824,82.838 93.6288,95.9065 94.0752,82.0457 94.5216,89.7766 94.968,77.6452 95.4144,82.1763 95.8608,79.0428 96.3072,81.9082 96.7536,82.9059 97.2,78.5857 97.6464,82.4635 98.0928,70.0923 98.5392,83.2578 98.9856,70.2807 99.432,84.9075 99.8784,94.33 100.325,77.8328 100.771,76.3352 101.218,94.8744 101.664,96.3431 102.11,92.7353 102.557,78.5323 103.003,77.8792 103.45,65.563 103.896,75.2266 104.342,86.1617 104.789,91.0289 105.235,77.593 105.682,78.5805 106.128,81.1023 106.574,79.2745 107.021,91.0608 107.467,85.7764 107.914,87.602 108.36,86.236 108.806,80.5118 109.253,88.708 109.699,77.7166 110.146,87.5661 110.592,90.2149 111.038,78.1813 111.485,79.7719 111.931,87.2581 112.378,85.0661 112.824,84.0486 113.27,86.5811 113.717,65.4511 114.163,92.9786 114.61,78.9128 115.056,76.729 115.502,74.3294 115.949,89.4773 116.395,85.3215 116.842,85.5702 117.288,73.5037 117.734,77.0993 118.181,79.5103 118.627,73.8908 119.074,77.6136 119.52,97.1863 119.966,83.8037 120.413,78.2483 120.859,77.7645 121.306,88.8082 121.752,78.9002 122.198,89.9041 122.645,84.3615 123.091,97.6258 123.538,83.1322 123.984,87.5704 124.43,76.9761 124.877,70.033 125.323,89.7018 125.77,87.7247 126.216,92.8851 126.662,85.7163 127.109,78.1346 127.555,82.5169 128.002,74.191 128.448,90.8908 128.894,95.3113 129.341,84.9724 129.787,85.6091 130.234,84.9308 130.68,79.2047 131.126,85.6915 131.573,83.0602 132.019,91.5779 132.466,69.3687 132.912,77.3688 133.358,81.911 133.805,82.0042 134.251,77.7903 134.698,78.6532 135.144,88.585 135.59,84.9164 136.037,89.394 136.483,88.7947 136.93,82.9241 137.376,74.0363 137.822,81.674 138.269,73.7233 138.715,90.261 139.162,75.2763 139.608,77.1555 140.054,70.6585 140.501,70.1828 140.947,77.8647 141.394,83.9555 141.84,82.3228 142.286,89.2289 142.733,72.945 143.179,87.3971 143.626,81.1774 144.072,79.8466 144.518,80.4413 144.965,96.4786 145.411,84.5549 145.858,82.9283 146.304,78.8572 146.75,102.422 147.197,74.2759 147.643,77.1377 148.09,81.698 148.536,83.3264 148.982,93.2203 149.429,80.8449 149.875,78.2151 150.322,88.8535 150.768,73.7867 151.214,88.2511 151.661,71.3837 152.107,84.2218 152.554,82.484 153,81.146 153.446,89.7249 153.893,97.4827 154.339,92.6895 154.786,83.4179 155.232,86.7125 155.678,82.7759 156.125,87.354 156.571,78.8959 157.018,84.2976 157.464,81.265 157.91,79.7169 158.357,93.79 158.803,72.549 159.25,81.3416 159.696,82.0318 160.142,70.3346 160.589,88.7834 161.035,83.047 161.482,96.5554 161.928,65.1038 162.374,75.8074 162.821,92.1303 163.267,75.9143 163.714,76.7355 164.16,91.6608 164.606,82.7139 165.053,83.6676 165.499,84.3918 165.946,82.7552 166.392,75.6871 166.838,95.9367 167.285,85.1937 167.731,90.2526 168.178,71.4502 168.624,91.1192 169.07,73.4723 169.517,73.9706 169.963,83.3354 170.41,86.0482 170.856,70.6215 171.302,70.102 171.749,72.2629 172.195,75.3149 172.642,59.9484 173.088,89.3907 173.534,85.623 173.981,75.441 174.427,81.2291 174.874,82.5752 175.32,73.0116 175.766,83.1544 176.213,69.0109 176.659,82.9911 177.106,83.2657 177.552,81.0355 177.998,73.1227 178.445,89.4623 178.891,77.1172 179.338,73.7607 179.784,91.9691 180.23,77.4279 180.677,95.5049 181.123,80.799 181.57,85.5546 182.016,86.3515 182.462,93.2338 182.909,83.8465 183.355,77.6883 183.802,91.6122 184.248,79.3694 184.694,82.3772 185.141,79.9844 185.587,85.6826 186.034,80.3202 186.48,94.5608 186.926,81.6632 187.373,92.4651 187.819,89.0982 188.266,74.5763 188.712,93.2798 189.158,95.951 189.605,83.0904 190.051,81.908 190.498,79.1811 190.944,95.5531 191.39,82.3387 191.837,74.5288 192.283,79.0005 192.73,81.2672 193.176,95.0127 193.622,96.076 194.069,70.0584 194.515,75.906 194.962,83.4213 195.408,79.2568 195.854,78.4692 196.301,68.3206 196.747,77.6753 197.194,102.443 197.64,88.9104 198.086,75.582 198.533,85.0107 198.979,87.3037 199.426,75.2834 199.872,67.9875 200.318,85.6843 200.765,71.9822 201.211,83.4002 201.658,92.7275 202.104,87.3328 202.55,74.349 202.997,80.4658 203.443,103.313 203.89,77.8091 204.336,72.695 204.782,79.7452 205.229,79.4799 205.675,73.8099 206.122,71.9674 206.568,80.7128 207.014,83.0593 207.461,72.1625 207.907,82.9633 208.354,86.777 208.8,83.655 209.246,91.1008 209.693,70.6713 210.139,80.063 210.586,71.2888 211.032,89.6719 211.478,93.242 211.925,90.4417 212.371,85.4582 212.818,79.0515 213.264,70.2066 213.71,81.8059 214.157,80.405 214.603,86.9251 215.05,87.0768 215.496,78.2006 215.942,87.4436 216.389,80.1147 216.835,74.8685 217.282,82.0202 217.728,80.5576 218.174,98.5509 218.621,81.7997 219.067,95.7162 219.514,78.5338 219.96,84.4979 220.406,96.1274 220.853,82.0621 221.299,78.6706 221.746,78.0828 222.192,84.6244 222.638,81.768 223.085,88.9301 223.531,87.113 223.978,73.6136 224.424,82.5139 224.87,83.106 225.317,88.4098 225.763,67.3995 226.21,73.1639 226.656,73.5186 227.102,76.5905 227.549,100.854 227.995,86.8574 228.442,78.2682 228.888,91.252 229.334,73.3683 229.781,81.7044 230.227,87.454 230.674,86.0574 231.12,82.7829 231.566,74.7843 232.013,96.139 232.459,72.9037 232.906,68.4287 233.352,87.6212 233.798,80.7156 234.245,89.5003 234.691,74.2613 235.138,74.1922 235.584,92.3646 236.03,74.5737 236.477,83.7629 236.923,86.248 237.37,85.9077 237.816,88.7626 238.262,82.6964 238.709,93.0293 239.155,85.0794 239.602,81.5804 240.048,74.6978 240.494,93.3052 240.941,79.1746 241.387,80.3985 241.834,84.2119 242.28,67.9026 242.726,88.183 243.173,96.8312 243.619,64.8279 244.066,86.3282 244.512,83.6305 244.958,79.2989 245.405,84.4902 245.851,82.6156 246.298,97.4266 246.744,93.9585 247.19,82.7816 247.637,90.8887 248.083,85.9562 248.53,71.2113 248.976,72.1736 249.422,85.8054 249.869,87.28 250.315,83.7181 250.762,67.2042 251.208,87.026 251.654,82.1761 252.101,70.9828 252.547,81.0113 252.994,106.93 253.44,84.268 253.886,92.5061 254.333,95.3872 254.779,84.8383 255.226,83.8184 255.672,100.22 256.118,72.5303 256.565,72.3828 257.011,89.1194 257.458,77.3729 257.904,80.3599 258.35,68.4544 258.797,69.4866 259.243,88.226 259.69,87.8582 260.136,85.3851 260.582,82.7309 261.029,93.7439 261.475,86.0828 261.922,73.0581 262.368,79.6997 262.814,88.668 263.261,71.0581 263.707,85.9888 264.154,81.1297 264.6,77.1885 265.046,76.0817 265.493,68.3291 265.939,84.1852 266.386,80.5147 266.832,83.5694 267.278,77.3413 267.725,64.4905 268.171,80.7658 268.618,82.6211 269.064,85.1306 269.51,85.0661 269.957,83.8189 270.403,76.3377 270.85,78.3135 271.296,86.3022 271.742,75.4199 272.189,74.9243 272.635,83.6902 273.082,83.6357 273.528,86.3016 273.974,80.4912 274.421,94.9371 274.867,82.2331 275.314,80.0892 275.76,75.6198 276.206,92.0951 276.653,82.7233 277.099,76.3413 277.546,79.0495 277.992,89.2488 278.438,81.0337 278.885,84.4017 279.331,72.4763 279.778,87.1509 280.224,84.0598 280.67,83.7807 281.117,80.0163 281.563,85.932 282.01,83.4204 282.456,87.2459 282.902,85.4012 283.349,90.2167 283.795,92.2835 284.242,69.4561 284.688,96.4804 285.134,77.3619 285.581,75.9272 286.027,83.8732 286.474,73.5909 286.92,87.9498 287.366,81.0897 287.813,82.7146 288.259,89.4079 288.706,82.8071 289.152,85.8585 289.598,90.8219 290.045,76.9323 290.491,74.4716 290.938,81.9154 291.384,91.0353 291.83,84.3678 292.277,91.4651 292.723,67.6189 293.17,79.9946 293.616,82.3714 294.062,90.9644 294.509,67.4414 294.955,69.5826 295.402,68.2495 295.848,86.4756 296.294,85.8657 296.741,82.1252 297.187,85.2291 297.634,74.4083 298.08,93.1377 298.526,92.1053 298.973,102.836 299.419,73.9948 299.866,97.929 300.312,75.3705 300.758,83.0595 301.205,79.2341 301.651,81.5664 302.098,84.5124 302.544,95.0157 302.99,92.1819 303.437,78.3053 303.883,79.4795 304.33,72.9274 304.776,68.8536 305.222,86.394 305.669,98.5607 306.115,88.6877 306.562,80.4968 307.008,83.7974 307.454,81.5599 307.901,85.9925 308.347,78.8019 308.794,79.1547 309.24,94.1178 309.686,88.7125 310.133,88.3766 310.579,82.953 311.026,79.0397 311.472,82.7788 311.918,86.9215 312.365,78.5708 312.811,81.5403 313.258,76.8361 313.704,92.679 314.15,76.886 314.597,79.5099 315.043,87.54 315.49,94.7909 315.936,73.5435 316.382,84.2668 316.829,85.6531 317.275,89.6076 317.722,74.8971 318.168,77.415 318.614,93.7184 319.061,81.7917 319.507,97.4704 319.954,79.0708 320.4,83.0663 320.846,86.7278 321.293,73.6019 321.739,79.4211 322.186,87.4122 322.632,77.2648 323.078,83.4275 323.525,81.1552 323.971,92.8098 324.418,81.6221 324.864,88.3664 325.31,91.8763 325.757,69.4563 326.203,75.7895 326.65,78.7536 327.096,65.4766 327.542,82.4876 327.989,105.013 328.435,80.924 328.882,77.4274 329.328,74.4338 329.774,65.0064 330.221,83.8053 330.667,83.4808 331.114,80.9639 331.56,79.6125 332.006,85.9789 332.453,82.3849 332.899,74.7799 333.346,82.59 333.792,91.4419 334.238,71.7035 334.685,85.7762 335.131,80.631 335.578,72.76 336.024,75.5804 336.47,81.3837 336.917,81.0462 337.363,85.5671 337.81,82.0449 338.256,76.3893 338.702,73.5938 339.149,70.9245 339.595,80.1248 340.042,70.6113 340.488,77.7914 340.934,90.0826 341.381,92.5273 341.827,74.8874 342.274,74.4098 342.72,76.7206 343.166,88.5203 343.613,90.6598 344.059,95.4034 344.506,82.9045 344.952,84.8319 345.398,82.1779 345.845,84.0054 346.291,81.552 346.738,83.8271 347.184,84.6767 347.63,77.5748 348.077,93.0477 348.523,80.643 348.97,80.421 349.416,78.3778 349.862,78.894 350.309,83.0138 350.755,82.7776 351.202,78.5103 351.648,82.0557 352.094,73.7968 352.541,70.8614 352.987,73.8031 353.434,94.7974 353.88,77.9535 354.326,87.7863 354.773,87.7585 355.219,87.5644 355.666,87.9536 356.112,78.4691 356.558,72.0819 357.005,70.7396 357.451,81.8484 357.898,89.4899 358.344,71.89 358.79,83.311 359.237,81.0125 359.683,77.5738 360.13,83.9388 360.576,75.4363 361.022,79.7158 361.469,67.6305 361.915,81.7038 362.362,85.8325 362.808,96.1498 363.254,79.2798 363.701,78.8229 364.147,77.5367 364.594,86.0662 365.04,72.5851 365.486,85.7655 365.933,104.619 366.379,84.7238 366.826,70.5718 367.272,80.4867 367.718,68.0763 368.165,92.7323 368.611,63.2017 369.058,77.7993 369.504,65.7669 369.95,87.6411 370.397,77.3943 370.843,79.1393 371.29,86.4565 371.736,97.4923 372.182,81.3992 372.629,93.5548 373.075,75.1181 373.522,77.4443 373.968,81.9219 374.414,85.2281 374.861,74.0536 375.307,79.0031 375.754,89.7733 376.2,83.7864 376.646,76.2599 377.093,86.1748 377.539,82.7711 377.986,84.7461 378.432,78.9004 378.878,78.7107 379.325,72.7377 379.771,78.9709 380.218,88.7217 380.664,65.4346 381.11,83.9031 381.557,87.3675 382.003,88.344 382.45,87.9387 382.896,80.7948 383.342,87.3973 383.789,94.6794 384.235,77.5765 384.682,84.2388 385.128,82.3544 385.574,84.9616 386.021,70.1506 386.467,79.8029 386.914,75.8024 387.36,81.4645 387.806,77.8041 388.253,97.3895 388.699,77.5654 389.146,70.2461 389.592,76.9934 390.038,86.7499 390.485,91.4514 390.931,87.6572 391.378,86.5565 391.824,73.0615 392.27,86.2396 392.717,87.9108 393.163,88.2274 393.61,87.4619 394.056,90.4616 394.502,81.3448 394.949,91.436 395.395,88.7375 395.842,95.9085 396.288,77.101 396.734,77.9085 397.181,88.3398 397.627,93.2638 398.074,83.1646 398.52,80.8818 398.966,87.6422 399.413,87.9255 399.859,66.5731 400.306,88.2179 400.752,102.854 401.198,84.9908 401.645,77.0287 402.091,100.274 402.538,87.9774 402.984,77.7472 403.43,78.7778 403.877,92.9596 404.323,89.575 404.77,79.8849 405.216,93.3273 405.662,82.041 406.109,82.5681 406.555,78.0086 407.002,74.0156 407.448,95.0382 407.894,76.929 408.341,73.4627 408.787,85.2009 409.234,91.0815 409.68,91.3229 410.126,87.3163 410.573,88.0361 411.019,82.5646 411.466,78.4598 411.912,79.5304 412.358,82.6165 412.805,95.005 413.251,85.6963 413.698,84.4334 414.144,78.351 414.59,94.107 415.037,79.1021 415.483,76.3053 415.93,93.1819 416.376,82.863 416.822,77.7964 417.269,86.4393 417.715,90.4351 418.162,86.1047 418.608,86.6761 419.054,93.7786 419.501,82.1597 419.947,77.8484 420.394,91.0462 420.84,85.5164 421.286,86.9503 421.733,96.1011 422.179,82.6462 422.626,79.1804 423.072,84.6112 423.518,83.2764 423.965,74.7481 424.411,73.7549 424.858,87.8922 425.304,88.079 425.75,78.7605 426.197,89.1729 426.643,81.9035 427.09,90.036 427.536,81.7299 427.982,81.9514 428.429,71.3125 428.875,94.3889 429.322,75.5889 429.768,76.9135 430.214,84.0014 430.661,84.1728 431.107,79.2939 431.554,77.7927 432,76.1853 432.446,92.9831 432.893,80.1097 433.339,89.1975 433.786,86.5179 434.232,77.5074 434.678,90.3289 435.125,87.0059 435.571,68.3399 436.018,81.9389 436.464,87.6814 436.91,76.1946 437.357,87.8029 437.803,77.0444 438.25,76.4026 438.696,87.3495 439.142,79.2492 439.589,80.137 440.035,82.0551 440.482,90.2668 440.928,91.0865 441.374,89.3411 441.821,84.5314 442.267,82.6507 442.714,78.3942 443.16,84.4169 443.606,75.1885 444.053,89.4347 444.499,89.1382 444.946,73.1135 445.392,83.7701 445.838,86.9009 446.285,76.1454 446.731,75.8501 447.178,74.5788 447.624,76.37 448.07,72.3577 448.517,81.8479 448.963,99.6281 449.41,81.585 449.856,74.1703 450.302,74.8963 450.749,84.4091 451.195,74.4449 451.642,77.2245 452.088,92.5495 452.534,81.9776 452.981,79.4792 453.427,79.0185 453.874,85.2967 454.32,91.4575 454.766,81.5805 455.213,76.0417 455.659,72.4597 456.106,71.3017 456.552,79.9394 456.998,89.932 457.445,82.197 457.891,77.184 458.338,80.4405 458.784,98.2836 459.23,84.4159 459.677,75.0435 460.123,83.2872 460.57,82.213 461.016,80.6463 461.462,82.0027 461.909,85.6915 462.355,90.1615 462.802,76.1227 463.248,91.901 463.694,79.1806 464.141,86.6101 464.587,75.0863 465.034,79.7479 465.48,82.2041 465.926,79.8993 466.373,83.5309 466.819,85.33 467.266,85.799 467.712,81.1618 468.158,84.3664 468.605,79.3409 469.051,71.8086 469.498,83.9071 469.944,88.1168 470.39,81.8105 470.837,81.8418 471.283,92.1668 471.73,76.5109 472.176,68.6884 472.622,77.3917 473.069,91.515 473.515,74.8835 473.962,80.388 474.408,79.4688 474.854,86.5309 475.301,78.8135 475.747,79.6117 476.194,82.4366 476.64,72.097 477.086,85.5684 477.533,77.93 477.979,88.1182 478.426,69.7175 478.872,80.8372 479.318,70.2453 479.765,79.9363 480.211,95.4201 480.658,88.711 481.104,82.073 481.55,78.6888 481.997,74.8205 482.443,70.9962 482.89,77.7555 483.336,90.2712 483.782,89.2402 484.229,70.0377 484.675,81.4719 485.122,90.7445 485.568,77.402 486.014,86.5187 486.461,86.9141 486.907,80.5954 487.354,74.6878 487.8,99.711 488.246,85.5649 488.693,72.6732 489.139,73.9284 489.586,91.3496 490.032,70.8144 490.478,84.2889 490.925,83.4918 491.371,82.3044 491.818,98.2244 492.264,76.251 492.71,77.6943 493.157,78.1702 493.603,84.0185 494.05,80.5201 494.496,77.3731 494.942,79.1435 495.389,85.274 495.835,80.4432 496.282,77.7525 496.728,88.0164 497.174,88.1663 497.621,72.1006 498.067,88.1208 498.514,83.8736 498.96,76.9648 499.406,70.1109 499.853,83.0856 500.299,64.058 500.746,80.8027 501.192,84.3427 501.638,85.6267 502.085,84.0652 502.531,86.1298 502.978,93.225 503.424,84.3105 503.87,83.3323 504.317,86.4161 504.763,83.42 505.21,78.4635 505.656,91.1214 506.102,70.0993 506.549,75.9621 506.995,86.8492 507.442,74.628 507.888,86.2991 508.334,87.8786 508.781,83.7972 509.227,85.5764 509.674,73.5692 510.12,88.7095 510.566,72.6457 511.013,65.1508 511.459,75.3039 511.906,83.4254 512.352,77.243 512.798,83.0342 513.245,77.7487 513.691,77.4734 514.138,77.9363 514.584,71.7567 515.03,84.7785 515.477,72.2151 515.923,88.9887 516.37,98.3314 516.816,87.8027 517.262,64.653 517.709,76.5573 518.155,82.1516 518.602,67.7856 519.048,73.4195 519.494,82.498 519.941,68.8402 520.387,85.3207 520.834,74.1119 521.28,88.5438"
         id="polyline3273"
         style="fill:none;stroke:#d85218;stroke-width:2;stroke-linecap:butt;stroke-linejoin:round"
         transform="translate(0,154.5)" />
    </g>
    <clipPath
       id="clipPath3279">
      <polygon
         points="576,0 0,0 0,432 576,432 "
         id="polygon3277" />
    </clipPath>
    <g
       clip-path="url(#cp00576432)"
       id="g3303">
      <polyline
         points="447.458,71.2232 510.097,71.2232"
         id="polyline3283"
         style="fill:none;stroke:#262626;stroke-width:0.5;stroke-linecap:square;stroke-linejoin:miter;stroke-dasharray:16, 0"
         transform="translate(1.8305085,225.61018)" />
      <polyline
         points="447.458,43.583 510.097,43.583"
         id="polyline3285"
         style="fill:none;stroke:#262626;stroke-width:0.5;stroke-linecap:square;stroke-linejoin:miter;stroke-dasharray:16, 0"
         transform="translate(1.8305085,225.61018)" />
      <polyline
         points="447.458,71.2232 447.458,43.583"
         id="polyline3287"
         style="fill:none;stroke:#262626;stroke-width:0.5;stroke-linecap:square;stroke-linejoin:miter;stroke-dasharray:16, 0"
         transform="translate(1.8305085,225.61018)" />
      <polyline
         points="510.097,71.2232 510.097,43.583"
         id="polyline3289"
         style="fill:none;stroke:#262626;stroke-width:0.5;stroke-linecap:square;stroke-linejoin:miter;stroke-dasharray:16, 0"
         transform="translate(1.8305085,225.61018)" />
      <text
         font-style="normal"
         font-size="9"
         xml:space="preserve"
         font-weight="normal"
         id="text3293"
         style="font-style:normal;font-weight:normal;font-size:9px;font-family:FreeSans"
         x="476.78052"
         y="279.60327">     <tspan
   y="279.60327"
   x="476.78052 479.78052 484.78052 488.78052"
   id="tspan3291"
   style="fill:#000000">rest</tspan>   </text>
      <text
         font-style="normal"
         font-size="9"
         xml:space="preserve"
         font-weight="normal"
         id="text3297"
         style="font-style:normal;font-weight:normal;font-size:9px;font-family:FreeSans"
         x="476.78052"
         y="293.92328">     <tspan
   id="tspan3295"
   y="293.92328"
   x="476.78052 479.78052 482.78052 487.78052 492.78052 495.78052 498.78052 503.78052 505.78052"
   style="fill:#000000">free-fall</tspan>   </text>
      <polyline
         points="450.72,50.4931 471.688,50.4931"
         id="polyline3299"
         style="fill:none;stroke:#0071bc;stroke-width:2;stroke-linecap:butt;stroke-linejoin:round"
         transform="translate(1.8305085,225.61018)" />
      <polyline
         points="450.72,64.3131 471.688,64.3131"
         id="polyline3301"
         style="fill:none;stroke:#d85218;stroke-width:2;stroke-linecap:butt;stroke-linejoin:round"
         transform="translate(1.8305085,225.61018)" />
    </g>
  </g>
  <path
     style="fill:none;stroke:#000000;stroke-width:0.50024998;stroke-linecap:butt;stroke-linejoin:miter;stroke-miterlimit:4;stroke-dasharray:none;stroke-opacity:1"
     d="M 38.885481,1.25 V 202.439"
     id="path4897"
     inkscape:connector-curvature="0" />
  <path
     style="fill:none;stroke:#000000;stroke-width:0.50024998;stroke-linecap:butt;stroke-linejoin:miter;stroke-miterlimit:4;stroke-dasharray:none;stroke-opacity:1"
     d="M 485.28548,1.25 V 202.439"
     id="path4899"
     inkscape:connector-curvature="0" />
</svg>
